# xmcd
#
# Track frame offsets:
#	150
#	14282
#	33592
#	60762
#	76185
#	93735
#	114817
#	130640
#	145617
#	162892
#	179065
#	200610
#	218202
#	238595
#	253582
#
# Disc length: 3634 seconds
#
# Revision: 1
# Processed by: cddbd v1.4PL0 Copyright (c) Steve Scherf et al.
# Submitted via: audiograbber 1.82.02
#
DISCID=c20e300f
DTITLE=Paul Oscher - Knockin on the devil door 
DYEAR=1996
DGENRE=Blues
TTITLE0=Debra Lou
TTITLE1=I´m sorry
TTITLE2=Straw and a Pipe
TTITLE3=Knocking on the devils´s door
TTITLE4=Blues in the alley
TTITLE5=Collars for Dollars
TTITLE6=Kind hearted Woman
TTITLE7=Mean Disposition
TTITLE8=My Baby´s gone
TTITLE9=Sugar Babe
TTITLE10=New Year´s Blues 
TTITLE11=Sonnymoon for Two
TTITLE12=Zero Messages
TTITLE13=Brown skin Woman
TTITLE14=Alone with the Blues
EXTD=
EXTT0=
EXTT1=
EXTT2=
EXTT3=
EXTT4=
EXTT5=
EXTT6=
EXTT7=
EXTT8=
EXTT9=
EXTT10=
EXTT11=
EXTT12=
EXTT13=
EXTT14=
PLAYORDER=
